#!OML:ASF F:\VICON\USERDATA\INSTALL\rory3\rory3.ASF
:FULLY-SPECIFIED
:DEGREES
4551
root -6.01477 17.7225 -0.445275 -903.878 -42.923 -897.329
lowerback 11.1849 0.610439 -2.45573
upperback 1.57357 0.5066 2.06783
thorax -4.66917 0.260365 3.47977
lowerneck -11.2524 -4.89483 -13.221
upperneck 37.9276 -11.3859 9.61381
head 17.0317 -6.53984 4.29103
rclavicle -1.08213e-013 2.64384e-014
rhumerus -32.3055 -15.8647 -72.235
rradius 36.6
rwrist 1.58205
rhand -20.2174 9.86798
rfingers 7.12502
rthumb 6.12998 -20.0233
lclavicle -1.08213e-013 2.64384e-014
lhumerus -34.6696 8.65458 81.41
lradius 36.715
lwrist -2.41417
lhand -20.9834 21.9024
lfingers 7.12502
lthumb 5.39036 51.8138
rfemur -10.927 -1.01641 21.5639
rtibia 34.598
rfoot -17.4464 9.85754
rtoes -0.411759
lfemur -9.06091 -5.76804 -20.1658
ltibia 29.9385
lfoot -16.0651 -10.6602
ltoes 0.187753
4552
root -5.9918 17.724 -0.465897 -903.985 -42.631 -897.201
lowerback 11.3028 0.591609 -2.74768
upperback 1.54442 0.450073 2.22699
thorax -4.76458 0.24016 3.82305
lowerneck -11.2244 -4.88658 -13.2702
upperneck 37.9063 -11.4543 9.75911
head 17.0427 -6.56794 4.35162
rclavicle 2.64632e-014 -2.72335e-014
rhumerus -32.2546 -15.9033 -72.2101
rradius 36.5787
rwrist 1.55031
rhand -20.3999 9.8139
rfingers 7.12502
rthumb 5.9537 -20.0824
lclavicle 2.64632e-014 -2.72335e-014
lhumerus -34.6717 8.509 81.5574
lradius 36.6773
lwrist -2.59592
lhand -21.1508 22.2309
lfingers 7.12502
lthumb 5.22879 52.1464
rfemur -11.2554 -1.18709 21.7374
rtibia 35.0934
rfoot -17.188 10.4544
rtoes 0.562798
lfemur -8.896 -5.84751 -19.9152
ltibia 29.708
lfoot -15.5607 -11.8476
ltoes 2.70427
4553
root -5.96841 17.7239 -0.481127 -903.927 -42.342 -897.36
lowerback 11.5764 0.570807 -2.99989
upperback 1.4659 0.383928 2.138
thorax -4.99453 0.218521 3.88477
lowerneck -11.2572 -4.8652 -12.923
upperneck 38.0061 -11.5536 9.69262
head 17.0873 -6.58173 4.23793
rclavicle -9.323e-014 2.16675e-014
rhumerus -32.4844 -16.1407 -72.3844
rradius 36.7851
rwrist 1.36443
rhand -20.4857 9.90195
rfingers 7.12502
rthumb 5.87089 -19.9967
lclavicle -9.323e-014 2.16675e-014
lhumerus -34.7204 8.24262 81.4083
lradius 36.6055
lwrist -2.67564
lhand -20.9797 22.3009
lfingers 7.12502
lthumb 5.39395 52.2123
rfemur -11.6265 -1.56789 21.6703
rtibia 35.7143
rfoot -17.071 11.0452
rtoes 0.10142
lfemur -8.69805 -5.81785 -19.9217
ltibia 29.3956
lfoot -15.3253 -11.8683
ltoes 2.11689
4554
root -5.94211 17.7219 -0.494506 -903.696 -42.0607 -897.768
lowerback 11.9308 0.496247 -3.28965
upperback 1.33878 0.230966 1.87315
thorax -5.31179 0.158157 3.79708
lowerneck -11.1732 -4.81679 -12.5503
upperneck 37.9915 -11.6422 9.70581
head 17.0419 -6.5808 4.15832
rclavicle -1.26725e-015 -6.95746e-016
rhumerus -32.7818 -16.7064 -72.6774
rradius 36.9645
rwrist 1.48858
rhand -20.194 10.1613
rfingers 7.12502
rthumb 6.15252 -19.7294
lclavicle -1.26725e-015 -6.95746e-016
lhumerus -34.8297 7.73566 81.0763
lradius 36.5655
lwrist -2.44437
lhand -20.8373 22.4258
lfingers 7.12502
lthumb 5.53142 52.3336
rfemur -12.0654 -1.9626 21.405
rtibia 36.4699
rfoot -17.0667 11.4505
rtoes -1.43985
lfemur -8.49481 -5.68032 -20.1098
ltibia 29.0665
lfoot -15.4063 -11.2631
ltoes 0.232613
4555
root -5.9135 17.7233 -0.509714 -903.578 -41.7693 -897.991
lowerback 12.1822 0.425867 -3.62225
upperback 1.27528 0.0813697 1.76239
thorax -5.50573 0.0970469 3.89644
lowerneck -11.1472 -4.77793 -12.5312
upperneck 37.9512 -11.7278 9.95397
head 17.0503 -6.59825 4.24935
rclavicle 7.30658e-014 -5.66536e-015
rhumerus -32.9894 -17.1593 -72.8779
rradius 37.1454
rwrist 1.73956
rhand -19.995 10.4039
rfingers 7.12502
rthumb 6.3446 -19.4811
lclavicle 7.30658e-014 -5.66536e-015
lhumerus -34.8763 7.42084 80.8412
lradius 36.5388
lwrist -2.34806
lhand -20.6933 22.4233
lfingers 7.12502
lthumb 5.67047 52.3274
rfemur -12.6239 -2.31808 21.2946
rtibia 37.4076
rfoot -16.9938 11.8846
rtoes -2.26028
lfemur -8.29577 -5.5734 -20.116
ltibia 28.7744
lfoot -15.3502 -11.0412
ltoes -0.259728
4556
root -5.88686 17.7311 -0.523343 -903.536 -41.4074 -898.036
lowerback 12.2983 0.431446 -3.89658
upperback 1.2621 0.0476903 1.76923
thorax -5.58166 0.0887072 4.06699
lowerneck -11.2006 -4.77628 -12.6139
upperneck 37.978 -11.8613 10.2284
head 17.1376 -6.64475 4.36182
rclavicle 2.55376e-014 -9.93923e-017
rhumerus -33.1227 -17.5101 -72.9731
rradius 37.2776
rwrist 1.67753
rhand -19.8549 10.1864
rfingers 7.12502
rthumb 6.47988 -19.6945
lclavicle 2.55376e-014 -9.93923e-017
lhumerus -34.7158 7.51663 80.6818
lradius 36.2919
lwrist -2.69722
lhand -20.5831 22.1454
lfingers 7.12502
lthumb 5.77685 52.0466
rfemur -13.305 -3.26485 21.2825
rtibia 38.4583
rfoot -16.9557 12.8326
rtoes -3.78886
lfemur -8.14953 -5.42613 -19.991
ltibia 28.5034
lfoot -15.1159 -11.2483
ltoes 0.274921
